<svg width="274" height="76" viewBox="0 0 274 76" fill="none" xmlns="http://www.w3.org/2000/svg">
<path d="M12.4342 55C10.6102 55 9.02619 54.616 7.68219 53.848C6.37019 53.048 5.34619 51.976 4.61019 50.632C3.90619 49.256 3.55419 47.72 3.55419 46.024V21.4H8.16219V46.6C8.16219 47.848 8.54619 48.888 9.31419 49.72C10.1142 50.52 11.1542 50.92 12.4342 50.92H21.4582V55H12.4342ZM52.3708 55.624C49.7148 55.624 47.3148 55.176 45.1708 54.28C43.0268 53.352 41.1868 52.088 39.6508 50.488C38.1468 48.888 36.9788 47.032 36.1468 44.92C35.3148 42.808 34.8988 40.552 34.8988 38.152C34.8988 35.784 35.3148 33.544 36.1468 31.432C36.9788 29.32 38.1468 27.464 39.6508 25.864C41.1868 24.264 43.0268 23.016 45.1708 22.12C47.3148 21.224 49.7148 20.776 52.3708 20.776C55.0268 20.776 57.4268 21.224 59.5708 22.12C61.7148 23.016 63.5388 24.264 65.0428 25.864C66.5788 27.464 67.7628 29.32 68.5948 31.432C69.4268 33.544 69.8428 35.8 69.8428 38.2C69.8428 40.568 69.4268 42.808 68.5948 44.92C67.7628 47.032 66.5788 48.888 65.0428 50.488C63.5388 52.088 61.7148 53.352 59.5708 54.28C57.4268 55.176 55.0268 55.624 52.3708 55.624ZM52.3708 51.544C54.1948 51.544 55.8908 51.208 57.4588 50.536C59.0268 49.864 60.3868 48.92 61.5388 47.704C62.7228 46.488 63.6348 45.08 64.2748 43.48C64.9148 41.848 65.2348 40.072 65.2348 38.152C65.2348 36.264 64.9148 34.504 64.2748 32.872C63.6348 31.24 62.7388 29.832 61.5868 28.648C60.4348 27.432 59.0588 26.504 57.4588 25.864C55.8908 25.192 54.1948 24.856 52.3708 24.856C50.5148 24.856 48.8028 25.192 47.2348 25.864C45.6668 26.504 44.3068 27.432 43.1548 28.648C42.0028 29.832 41.1068 31.24 40.4668 32.872C39.8268 34.504 39.5068 36.28 39.5068 38.2C39.5068 40.088 39.8268 41.848 40.4668 43.48C41.1068 45.08 42.0028 46.488 43.1548 47.704C44.3068 48.92 45.6668 49.864 47.2348 50.536C48.8028 51.208 50.5148 51.544 52.3708 51.544ZM101.324 55.624C98.6679 55.624 96.2679 55.176 94.1239 54.28C91.9799 53.352 90.1399 52.088 88.6039 50.488C87.0999 48.888 85.9319 47.032 85.0999 44.92C84.2679 42.808 83.8519 40.552 83.8519 38.152C83.8519 35.784 84.2679 33.544 85.0999 31.432C85.9319 29.32 87.0999 27.464 88.6039 25.864C90.1399 24.264 91.9799 23.016 94.1239 22.12C96.2679 21.224 98.6679 20.776 101.324 20.776C103.98 20.776 106.38 21.224 108.524 22.12C110.668 23.016 112.492 24.264 113.996 25.864C115.532 27.464 116.716 29.32 117.548 31.432C118.38 33.544 118.796 35.8 118.796 38.2C118.796 40.568 118.38 42.808 117.548 44.92C116.716 47.032 115.532 48.888 113.996 50.488C112.492 52.088 110.668 53.352 108.524 54.28C106.38 55.176 103.98 55.624 101.324 55.624ZM101.324 51.544C103.148 51.544 104.844 51.208 106.412 50.536C107.98 49.864 109.34 48.92 110.492 47.704C111.676 46.488 112.588 45.08 113.228 43.48C113.868 41.848 114.188 40.072 114.188 38.152C114.188 36.264 113.868 34.504 113.228 32.872C112.588 31.24 111.692 29.832 110.54 28.648C109.388 27.432 108.012 26.504 106.412 25.864C104.844 25.192 103.148 24.856 101.324 24.856C99.4679 24.856 97.7559 25.192 96.1879 25.864C94.6199 26.504 93.2599 27.432 92.1079 28.648C90.9559 29.832 90.0599 31.24 89.4199 32.872C88.7799 34.504 88.4599 36.28 88.4599 38.2C88.4599 40.088 88.7799 41.848 89.4199 43.48C90.0599 45.08 90.9559 46.488 92.1079 47.704C93.2599 48.92 94.6199 49.864 96.1879 50.536C97.7559 51.208 99.4679 51.544 101.324 51.544ZM134.437 55V21.4H148.597C150.709 21.4 152.629 21.88 154.357 22.84C156.085 23.768 157.461 25.08 158.485 26.776C159.509 28.472 160.021 30.456 160.021 32.728C160.021 34.904 159.509 36.856 158.485 38.584C157.493 40.28 156.133 41.608 154.405 42.568C152.677 43.528 150.709 44.008 148.501 44.008H139.045V55H134.437ZM139.045 39.928H147.973C149.349 39.928 150.597 39.656 151.717 39.112C152.869 38.536 153.765 37.704 154.405 36.616C155.077 35.528 155.413 34.232 155.413 32.728C155.413 31.192 155.077 29.896 154.405 28.84C153.733 27.752 152.837 26.92 151.717 26.344C150.597 25.768 149.365 25.48 148.021 25.48H139.045V39.928ZM174.41 55V50.92H180.89V25.48H174.41V21.4H191.93V25.48H185.498V50.92H191.93V55H174.41ZM207.726 55V30.136C207.726 28.44 208.094 26.936 208.83 25.624C209.598 24.312 210.638 23.288 211.95 22.552C213.294 21.784 214.798 21.4 216.462 21.4H228.414V25.48H216.99C215.582 25.48 214.446 25.928 213.582 26.824C212.75 27.688 212.334 28.792 212.334 30.136V36.952H226.638V41.032H212.334V55H207.726ZM254.598 55V45.256C252.262 44.936 250.278 44.184 248.646 43C247.014 41.784 245.766 40.216 244.902 38.296C244.038 36.376 243.606 34.216 243.606 31.816V21.4H248.214V32.2C248.214 33.864 248.55 35.4 249.222 36.808C249.926 38.184 250.918 39.304 252.198 40.168C253.51 41 255.094 41.416 256.95 41.416C258.806 41.416 260.374 41 261.654 40.168C262.966 39.304 263.958 38.184 264.63 36.808C265.302 35.4 265.638 33.864 265.638 32.2V21.4H270.246V31.816C270.246 34.216 269.814 36.376 268.95 38.296C268.086 40.216 266.822 41.784 265.158 43C263.526 44.216 261.542 44.968 259.206 45.256V55H254.598Z" fill="#F3C93B"/>
</svg>
