<svg xmlns="http://www.w3.org/2000/svg" width="912.853" height="215.985" xmlns:v="https://vecta.io/nano"><path d="M252.756 48.188h8.815v107.939h-8.815zm-9.788 69.574c0 24.098-13.154 40.11-32.888 40.11-20.025 0-33.327-15.854-33.327-40.11 0-24.574 13.154-40.27 33.474-40.27 20.023 0 32.741 15.696 32.741 40.27zm-56.621.156c0 18.551 9.846 32.431 23.59 32.431 13.738 0 23.444-13.88 23.444-32.587 0-18.869-9.562-32.752-23.301-32.752-14.325 0-23.733 13.569-23.733 32.908zm243.473-.156c0 24.098-13.152 40.11-32.891 40.11-20.025 0-33.327-15.854-33.327-40.11 0-24.574 13.158-40.27 33.476-40.27 20.025 0 32.742 15.696 32.742 40.27zm-56.624.156c0 18.551 9.849 32.431 23.591 32.431s23.444-13.88 23.444-32.587c0-18.869-9.562-32.752-23.302-32.752-14.328 0-23.733 13.569-23.733 32.908zm-203.037-.156c0 24.098-13.155 40.11-32.886 40.11-20.027 0-33.329-15.854-33.329-40.11 0-24.574 13.155-40.27 33.472-40.27 20.025 0 32.743 15.696 32.743 40.27zm-56.62.156c0 18.551 9.845 32.431 23.587 32.431s23.445-13.88 23.445-32.587c0-18.869-9.563-32.752-23.298-32.752-14.328 0-23.734 13.569-23.734 32.908zm413.433-38.525v3.649c-.155 3.331 0 6.817-.45 10.146 4.954-9.512 13.818-14.905 24.189-14.905 16.971 0 23.061 12.526 23.955 28.539.308 3.651.459 9.834.459 13.474v35.832h-8.792v-35.832c0-4.436-.159-11.939-.444-15.583-1.056-12.217-7.065-18.87-16.825-18.87-7.977 0-15.333 5.229-19.247 13.475-1.49 3.015-2.098 6.025-2.545 12.529a202.74 202.74 0 0 0-.3 8.449v35.832h-8.745V48.188h8.745v31.205zm95.867 8.986c-5.92-2.033-8.717-2.625-14.617-2.861-8.776-.359-15.05 5.291-15.05 11.792 0 15.852 35.98 14.109 35.98 38.527 0 12.841-10.688 21.716-26.34 21.716-6.596 0-12.153-1.104-18.745-3.806l.629-8.688c6.59 3.642 11.667 4.991 17.525 4.991 9.959 0 17.271-6.601 17.271-14.213 0-18.393-35.128-15.223-35.128-38.37 0-11.887 9.374-19.731 24.002-19.499 5.647.091 8.299.248 15.165 2.626l-.692 7.785zm-302.234-9.27l12.937 53.765 2.681 12.258s1.667-7.287 2.999-12.246l14.982-53.776h9.453l-22.302 76.943h-10.384l-13.102-57.079-1.649-7.918-1.651 7.918-13.1 57.079h-10.388L268.782 79.11h9.452l14.985 53.776c1.332 4.959 2.996 12.246 2.996 12.246l2.679-12.258c2.235-10.202 12.939-53.765 12.939-53.765h8.772zM56.5 67.468l16.814 61.487c1.359 5.061 3.486 13.981 3.486 13.981l3.139-14.028 15.694-61.44h9.155l-22.82 88.638H71.962L54.405 88.691c-.802-3.28-2.01-9.603-2.01-9.603s-1.206 6.322-2.012 9.603c-.799 3.28-17.554 67.415-17.554 67.415H22.821L0 67.468h9.158l15.688 61.44c1.263 5.096 3.142 14.028 3.142 14.028l3.487-13.981 16.817-61.487H56.5zm382.815 88.659V79.244h7.482v17.579s4.171-16.354 27.407-17.557l7.446-.069V59.859l8.735-3.408v22.764h17.952v7.795h-17.952v46.735c0 11.028 3.447 14.866 10.97 14.866 4.169 0 7.605-1.546 7.605-1.546l.929 7.597s-4.349 1.424-8.95 1.424c-2.369 0-9.375.336-14.171-4.512-3.207-3.243-5.118-8.498-5.118-18.265l.002-46.612c-3.042-.023-9.587-.385-14.892 1.001-7.094 1.86-18.697 9.231-18.697 27.624v40.805h-8.748z" fill="#00582d"/><linearGradient id="A" gradientUnits="userSpaceOnUse" x1="892.955" y1="176.12" x2="817.705" y2="158.562"><stop offset=".121" stop-color="#009950"/><stop offset=".534" stop-color="#6bb453"/><stop offset=".843" stop-color="#9cc854"/><stop offset="1" stop-color="#b1d355"/></linearGradient><path fill="url(#A)" d="M838.63 182.1c-5.382 0-10.468-.665-15.26-1.887h0 0c-7.907 10.874-18.106 20.262-29.929 26.714 10.446 5.687 22.167 9.059 34.658 9.059 47.898 0 80.505-49.83 84.366-92.176-1.521 5.604-11.387 58.29-73.835 58.29z"/><linearGradient id="B" gradientUnits="userSpaceOnUse" x1="864.635" y1="13.495" x2="864.635" y2="183.324"><stop offset="0" stop-color="#06a94e"/><stop offset=".149" stop-color="#5ab450"/><stop offset=".318" stop-color="#81c052"/><stop offset=".479" stop-color="#9bca53"/><stop offset=".626" stop-color="#abd155"/><stop offset=".747" stop-color="#b1d355"/></linearGradient><path fill="url(#B)" d="M850.547 49.709c-23.04 0-34.131 13.373-34.131 13.373 23.783 2.408 53.001 19.186 53.001 53.942 0 33.753-22.118 49.087-40.198 54.212-1.772 3.078-3.727 6.074-5.849 8.977 4.792 1.222 9.878 1.887 15.26 1.887 62.448 0 72.314-52.686 73.836-58.29a89.38 89.38 0 0 0 .387-8.382c0-47.51-36.274-65.719-62.306-65.719z"/><linearGradient id="C" gradientUnits="userSpaceOnUse" x1="728.209" y1="13.495" x2="728.209" y2="183.324"><stop offset="0" stop-color="#06a94e"/><stop offset=".149" stop-color="#5ab450"/><stop offset=".318" stop-color="#81c052"/><stop offset=".479" stop-color="#9bca53"/><stop offset=".626" stop-color="#abd155"/><stop offset=".747" stop-color="#b1d355"/></linearGradient><path fill="url(#C)" d="M748.263 182.1c13.257 0 24.843-4.049 34.111-10.538-3.176.951-7.08 1.73-11.01 1.73-17.63 0-53.886-13.052-53.886-56.268 0-34.757 29.219-51.534 53.001-53.942 0 0-11.091-13.373-34.13-13.373-26.033 0-62.307 18.209-62.307 65.719a89.71 89.71 0 0 0 .385 8.382c1.521 5.651 11.197 58.29 73.836 58.29z"/><linearGradient id="D" gradientUnits="userSpaceOnUse" x1="769.998" y1="92.755" x2="769.998" y2="175.493"><stop offset=".187" stop-color="#009950"/><stop offset=".544" stop-color="#74b753"/><stop offset=".78" stop-color="#b1d355"/></linearGradient><path fill="url(#D)" d="M771.364 173.292c3.927 0 7.835-.779 11.01-1.73 4.276-2.985 8.047-6.513 11.268-10.369-2.2-2.765-12.413-16.584-12.413-35.074 0-17.292 9.266-24.673 12.326-26.643l-.008-.008c-6.36-4.741-13.53-6.113-17.606-6.113-6.571 0-24.32 4.502-28.508 24.769 0 0-.006.022-.009.041a58.76 58.76 0 0 0-.403 2.428c-.423 3.38-.666 7.119-.666 11.213 0 16.261 6.92 30.799 12.329 39.709 4.691 1.233 9.084 1.777 12.68 1.777z"/><linearGradient id="E" gradientUnits="userSpaceOnUse" x1="737.735" y1="207.159" x2="800.219" y2="-28.549"><stop offset=".055" stop-color="#009950"/><stop offset=".125" stop-color="#32a451"/><stop offset=".25" stop-color="#6fb553"/><stop offset=".362" stop-color="#92c454"/><stop offset=".456" stop-color="#a8ce55"/><stop offset=".522" stop-color="#b1d355"/></linearGradient><path fill="url(#E)" d="M793.778 77.305c-28.926 0-42.674 21.267-46.346 40.818 4.188-20.267 21.937-24.769 28.508-24.769 4.076 0 11.246 1.372 17.606 6.113 6.944 5.171 12.921 13.911 12.921 27.854 0 11.884-4.624 24.046-12.826 33.868-10.239 12.294-26.038 20.91-45.379 20.91-62.639 0-72.314-52.639-73.835-58.29 3.864 42.346 36.465 92.176 84.371 92.176 46.771 0 82.511-47.214 82.511-86.752.001-27.418-15.558-51.928-47.531-51.928z"/><linearGradient id="F" gradientUnits="userSpaceOnUse" x1="783.183" y1="68.197" x2="855.385" y2="-3.075"><stop offset="0" stop-color="#5cb249"/><stop offset=".484" stop-color="#88c14e"/><stop offset="1" stop-color="#b1d355"/></linearGradient><path fill="url(#F)" d="M794.646 61.162s-9.984-9.588-10.68-22.662c-.507-9.514 3.357-24.072 18.418-32.145 35.256-18.867 65.898 8.58 62.347 26.362 0 0-26.262-11.937-50.437 2.349-17.787 10.503-19.648 26.096-19.648 26.096z"/><defs ><path  d="M61.772-71.653c.018.072.007.127-.026.19-.053.101-.112.063-.165.128a.64.64 0 0 0-.079.362c-.169.058-.01.227-.015.35-.002.05-.041.105-.045.161-.01.119.017.266.068.37.097.198.268.413.435.544.19.148.365.572.608.631.177.042.384-.104.543-.143.18-.043.397.01.571-.053.222-.079.127-.337.288-.45.104-.074.287-.01.406-.051.2-.069.339-.263.376-.46.016-.082.01-.145.039-.221.039-.103.111-.16.09-.293-.01-.062-.052-.12-.064-.187-.022-.114.002-.224 0-.337-.003-.2.017-.379-.078-.55-.38-.688-1.236-.929-1.975-.789-.18.034-.287.126-.442.207-.17.088-.139.166-.318.224-.081.026-.216.124-.215.224.001.115.005.051.012.169-.021.011-.021-.005-.03-.025"/><path  d="M.439-71.653c.018.072.008.127-.026.19-.052.101-.113.063-.165.128a.63.63 0 0 0-.079.362c-.169.058-.01.227-.015.35-.002.05-.041.105-.045.161-.01.119.017.266.068.37.097.198.268.413.435.544.19.148.365.572.608.631.177.042.384-.104.543-.143.18-.043.397.01.571-.053.222-.079.127-.337.288-.45.104-.074.287-.01.406-.051.2-.07.339-.263.376-.46.016-.082.01-.145.039-.221.038-.103.111-.16.09-.293-.01-.062-.051-.12-.064-.187-.021-.114.002-.224 0-.337-.003-.2.017-.379-.078-.55-.38-.688-1.236-.929-1.975-.789-.18.034-.287.126-.442.207-.17.088-.139.166-.318.224-.081.026-.215.124-.215.224.002.115.005.051.012.169-.021.011-.021-.005-.03-.025"/><path  d="M61.778-64.001c.018.072.007.127-.026.19-.053.101-.112.063-.165.128a.64.64 0 0 0-.079.362c-.169.058-.009.227-.015.35-.002.05-.041.105-.045.161-.01.119.017.266.068.37.097.198.268.413.435.544.19.148.365.572.608.631.177.042.384-.104.543-.143.18-.043.397.01.571-.053.222-.079.127-.337.288-.45.104-.074.287-.01.406-.051.2-.069.339-.263.376-.46.016-.082.01-.145.039-.221.039-.103.111-.16.09-.293-.01-.062-.052-.12-.064-.187-.022-.114.002-.224 0-.337-.003-.2.017-.379-.078-.55-.38-.688-1.236-.929-1.975-.789-.18.034-.287.126-.442.207-.17.088-.139.166-.318.224-.081.026-.216.124-.215.224.001.115.005.051.012.169-.021.011-.021-.005-.03-.025"/><path  d="M.495-56.348c.018.072.007.127-.026.19-.053.101-.112.063-.165.128a.64.64 0 0 0-.079.362c-.169.058-.01.227-.015.35-.002.05-.041.105-.045.161-.01.119.017.266.068.37.097.198.268.413.435.544.19.148.365.572.608.631.177.042.384-.104.543-.143.18-.043.397.01.571-.053.222-.079.127-.337.288-.45.104-.074.287-.01.406-.051.2-.069.339-.263.376-.46.016-.082.01-.145.039-.221.039-.103.111-.16.09-.293-.01-.062-.052-.12-.064-.187-.022-.114.002-.224 0-.337-.003-.2.017-.379-.078-.55-.38-.688-1.236-.929-1.975-.789-.18.034-.287.126-.442.207-.17.088-.139.166-.318.224-.081.026-.216.124-.215.224l.013.171c-.021.011-.021-.005-.03-.025"/></defs></svg>